<mxfile host="app.diagrams.net" modified="2022-07-25T03:20:15.690Z" agent="5.0 (Windows NT 10.0; Win64; x64) AppleWebKit/537.36 (KHTML, like Gecko) Chrome/103.0.0.0 Safari/537.36" etag="2hnIFL2bIBPavrcm5pKn" version="20.1.1" type="github">
  <diagram name="Page-1" id="13e1069c-82ec-6db2-03f1-153e76fe0fe0">
    <mxGraphModel dx="1422" dy="762" grid="1" gridSize="10" guides="1" tooltips="1" connect="1" arrows="1" fold="1" page="1" pageScale="1" pageWidth="1100" pageHeight="850" background="none" math="0" shadow="0">
      <root>
        <mxCell id="0" />
        <mxCell id="1" parent="0" />
        <mxCell id="7baba1c4bc27f4b0-2" value="account-service" style="shape=umlLifeline;perimeter=lifelinePerimeter;whiteSpace=wrap;html=1;container=1;collapsible=0;recursiveResize=0;outlineConnect=0;rounded=1;shadow=0;comic=0;labelBackgroundColor=none;strokeWidth=1;fontFamily=Verdana;fontSize=12;align=center;" parent="1" vertex="1">
          <mxGeometry x="600" y="80" width="100" height="2210" as="geometry" />
        </mxCell>
        <mxCell id="7baba1c4bc27f4b0-10" value="" style="html=1;points=[];perimeter=orthogonalPerimeter;rounded=0;shadow=0;comic=0;labelBackgroundColor=none;strokeWidth=1;fontFamily=Verdana;fontSize=12;align=center;" parent="7baba1c4bc27f4b0-2" vertex="1">
          <mxGeometry x="45" y="100" width="10" height="220" as="geometry" />
        </mxCell>
        <mxCell id="cbWRRwvguoUadpIohgbS-17" value="" style="html=1;points=[];perimeter=orthogonalPerimeter;" parent="7baba1c4bc27f4b0-2" vertex="1">
          <mxGeometry x="45" y="770" width="10" height="50" as="geometry" />
        </mxCell>
        <mxCell id="cbWRRwvguoUadpIohgbS-37" value="" style="html=1;points=[];perimeter=orthogonalPerimeter;" parent="7baba1c4bc27f4b0-2" vertex="1">
          <mxGeometry x="50" y="140" width="10" height="40" as="geometry" />
        </mxCell>
        <mxCell id="cbWRRwvguoUadpIohgbS-38" value="生成token1" style="edgeStyle=orthogonalEdgeStyle;html=1;align=left;spacingLeft=2;endArrow=block;rounded=0;entryX=1;entryY=0;" parent="7baba1c4bc27f4b0-2" target="cbWRRwvguoUadpIohgbS-37" edge="1">
          <mxGeometry relative="1" as="geometry">
            <mxPoint x="55" y="120" as="sourcePoint" />
            <Array as="points">
              <mxPoint x="85" y="120" />
            </Array>
          </mxGeometry>
        </mxCell>
        <mxCell id="cbWRRwvguoUadpIohgbS-54" value="" style="html=1;points=[];perimeter=orthogonalPerimeter;" parent="7baba1c4bc27f4b0-2" vertex="1">
          <mxGeometry x="45" y="470" width="10" height="50" as="geometry" />
        </mxCell>
        <mxCell id="cbWRRwvguoUadpIohgbS-68" value="" style="html=1;points=[];perimeter=orthogonalPerimeter;fontColor=#33001A;" parent="7baba1c4bc27f4b0-2" vertex="1">
          <mxGeometry x="45" y="980" width="10" height="200" as="geometry" />
        </mxCell>
        <mxCell id="cbWRRwvguoUadpIohgbS-71" value="查找" style="html=1;verticalAlign=bottom;endArrow=block;rounded=1;fontColor=#33001A;" parent="7baba1c4bc27f4b0-2" target="7baba1c4bc27f4b0-4" edge="1">
          <mxGeometry width="80" relative="1" as="geometry">
            <mxPoint x="50" y="1030" as="sourcePoint" />
            <mxPoint x="130" y="1030" as="targetPoint" />
          </mxGeometry>
        </mxCell>
        <mxCell id="cbWRRwvguoUadpIohgbS-73" value="" style="html=1;points=[];perimeter=orthogonalPerimeter;fontColor=#33001A;" parent="7baba1c4bc27f4b0-2" vertex="1">
          <mxGeometry x="55" y="1120" width="10" height="40" as="geometry" />
        </mxCell>
        <mxCell id="cbWRRwvguoUadpIohgbS-79" value="" style="html=1;points=[];perimeter=orthogonalPerimeter;fontColor=#33001A;" parent="7baba1c4bc27f4b0-2" vertex="1">
          <mxGeometry x="45" y="1390" width="10" height="280" as="geometry" />
        </mxCell>
        <mxCell id="cbWRRwvguoUadpIohgbS-81" value="" style="html=1;points=[];perimeter=orthogonalPerimeter;fontColor=#33001A;" parent="7baba1c4bc27f4b0-2" vertex="1">
          <mxGeometry x="55" y="1460" width="10" height="40" as="geometry" />
        </mxCell>
        <mxCell id="cbWRRwvguoUadpIohgbS-82" value="生成token3" style="edgeStyle=orthogonalEdgeStyle;html=1;align=left;spacingLeft=2;endArrow=block;rounded=0;entryX=1;entryY=0;fontColor=#33001A;" parent="7baba1c4bc27f4b0-2" target="cbWRRwvguoUadpIohgbS-81" edge="1">
          <mxGeometry relative="1" as="geometry">
            <mxPoint x="50" y="1440" as="sourcePoint" />
            <Array as="points">
              <mxPoint x="80" y="1440" />
            </Array>
          </mxGeometry>
        </mxCell>
        <mxCell id="cbWRRwvguoUadpIohgbS-84" value="保存用户信息" style="html=1;verticalAlign=bottom;endArrow=block;rounded=1;fontColor=#33001A;" parent="7baba1c4bc27f4b0-2" target="7baba1c4bc27f4b0-4" edge="1">
          <mxGeometry width="80" relative="1" as="geometry">
            <mxPoint x="50" y="1510" as="sourcePoint" />
            <mxPoint x="130" y="1510" as="targetPoint" />
          </mxGeometry>
        </mxCell>
        <mxCell id="cbWRRwvguoUadpIohgbS-105" value="" style="html=1;points=[];perimeter=orthogonalPerimeter;fontColor=#33001A;" parent="7baba1c4bc27f4b0-2" vertex="1">
          <mxGeometry x="45" y="2030" width="10" height="170" as="geometry" />
        </mxCell>
        <mxCell id="cbWRRwvguoUadpIohgbS-113" value="查找" style="html=1;verticalAlign=bottom;endArrow=block;rounded=1;fontColor=#33001A;" parent="7baba1c4bc27f4b0-2" target="7baba1c4bc27f4b0-4" edge="1">
          <mxGeometry width="80" relative="1" as="geometry">
            <mxPoint x="50" y="2070" as="sourcePoint" />
            <mxPoint x="130" y="2070" as="targetPoint" />
          </mxGeometry>
        </mxCell>
        <mxCell id="cbWRRwvguoUadpIohgbS-115" value="" style="html=1;points=[];perimeter=orthogonalPerimeter;fontColor=#33001A;" parent="7baba1c4bc27f4b0-2" vertex="1">
          <mxGeometry x="55" y="2140" width="10" height="40" as="geometry" />
        </mxCell>
        <mxCell id="cbWRRwvguoUadpIohgbS-116" value="达到续期条件后token3续期" style="edgeStyle=orthogonalEdgeStyle;html=1;align=left;spacingLeft=2;endArrow=block;rounded=0;entryX=1;entryY=0;fontColor=#33001A;" parent="7baba1c4bc27f4b0-2" source="cbWRRwvguoUadpIohgbS-105" target="cbWRRwvguoUadpIohgbS-115" edge="1">
          <mxGeometry relative="1" as="geometry">
            <mxPoint x="60" y="2120" as="sourcePoint" />
            <Array as="points">
              <mxPoint x="90" y="2120" />
              <mxPoint x="90" y="2140" />
            </Array>
          </mxGeometry>
        </mxCell>
        <mxCell id="7baba1c4bc27f4b0-3" value="jwt-shiro" style="shape=umlLifeline;perimeter=lifelinePerimeter;whiteSpace=wrap;html=1;container=1;collapsible=0;recursiveResize=0;outlineConnect=0;rounded=1;shadow=0;comic=0;labelBackgroundColor=none;strokeWidth=1;fontFamily=Verdana;fontSize=12;align=center;" parent="1" vertex="1">
          <mxGeometry x="770" y="80" width="100" height="2220" as="geometry" />
        </mxCell>
        <mxCell id="cbWRRwvguoUadpIohgbS-41" value="" style="html=1;points=[];perimeter=orthogonalPerimeter;" parent="7baba1c4bc27f4b0-3" vertex="1">
          <mxGeometry x="45" y="660" width="10" height="160" as="geometry" />
        </mxCell>
        <mxCell id="cbWRRwvguoUadpIohgbS-47" value="" style="html=1;points=[];perimeter=orthogonalPerimeter;" parent="7baba1c4bc27f4b0-3" vertex="1">
          <mxGeometry x="45" y="360" width="10" height="130" as="geometry" />
        </mxCell>
        <mxCell id="cbWRRwvguoUadpIohgbS-49" value="" style="html=1;points=[];perimeter=orthogonalPerimeter;" parent="7baba1c4bc27f4b0-3" vertex="1">
          <mxGeometry x="55" y="400" width="10" height="40" as="geometry" />
        </mxCell>
        <mxCell id="cbWRRwvguoUadpIohgbS-50" value="&lt;span style=&quot;text-align: center; color: rgb(50, 50, 50); font-family: 微软雅黑; font-size: 13px; background-color: rgba(255, 255, 255, 0.01);&quot;&gt;1、完成token1的校验&lt;br&gt;2、&lt;/span&gt;&lt;span style=&quot;color: rgb(50, 50, 50); font-family: 微软雅黑; font-size: 13px; text-align: center; background-color: rgba(255, 255, 255, 0.01);&quot;&gt;使用token1完成登录&lt;/span&gt;&lt;span style=&quot;text-align: center; color: rgb(50, 50, 50); font-family: 微软雅黑; font-size: 13px; background-color: rgba(255, 255, 255, 0.01);&quot;&gt;&lt;br&gt;subject.login()&lt;/span&gt;&lt;br style=&quot;text-align: center; color: rgb(50, 50, 50); font-family: 微软雅黑; font-size: 13px;&quot;&gt;&lt;span style=&quot;text-align: center; color: rgb(50, 50, 50); font-family: 微软雅黑; font-size: 13px; background-color: rgba(255, 255, 255, 0.01);&quot;&gt;subject&amp;lt;--&amp;gt;username&lt;/span&gt;" style="edgeStyle=orthogonalEdgeStyle;html=1;align=left;spacingLeft=2;endArrow=block;rounded=0;entryX=1;entryY=0;" parent="7baba1c4bc27f4b0-3" target="cbWRRwvguoUadpIohgbS-49" edge="1">
          <mxGeometry relative="1" as="geometry">
            <mxPoint x="55" y="380" as="sourcePoint" />
            <Array as="points">
              <mxPoint x="85" y="380" />
            </Array>
          </mxGeometry>
        </mxCell>
        <mxCell id="cbWRRwvguoUadpIohgbS-51" value="" style="html=1;points=[];perimeter=orthogonalPerimeter;" parent="7baba1c4bc27f4b0-3" vertex="1">
          <mxGeometry x="55" y="720" width="10" height="40" as="geometry" />
        </mxCell>
        <mxCell id="cbWRRwvguoUadpIohgbS-52" value="&lt;span style=&quot;text-align: center; color: rgb(50, 50, 50); font-family: 微软雅黑; font-size: 13px; background-color: rgba(255, 255, 255, 0.01);&quot;&gt;subject.login()&lt;/span&gt;&lt;br style=&quot;text-align: center; color: rgb(50, 50, 50); font-family: 微软雅黑; font-size: 13px;&quot;&gt;&lt;span style=&quot;text-align: center; color: rgb(50, 50, 50); font-family: 微软雅黑; font-size: 13px; background-color: rgba(255, 255, 255, 0.01);&quot;&gt;生成token2&lt;/span&gt;&lt;br style=&quot;text-align: center; color: rgb(50, 50, 50); font-family: 微软雅黑; font-size: 13px;&quot;&gt;&lt;span style=&quot;text-align: center; color: rgb(50, 50, 50); font-family: 微软雅黑; font-size: 13px; background-color: rgba(255, 255, 255, 0.01);&quot;&gt;subject&amp;lt;--&amp;gt;username&lt;/span&gt;" style="edgeStyle=orthogonalEdgeStyle;html=1;align=left;spacingLeft=2;endArrow=block;rounded=0;entryX=1;entryY=0;" parent="7baba1c4bc27f4b0-3" target="cbWRRwvguoUadpIohgbS-51" edge="1">
          <mxGeometry relative="1" as="geometry">
            <mxPoint x="55" y="705" as="sourcePoint" />
            <Array as="points">
              <mxPoint x="85" y="705" />
            </Array>
          </mxGeometry>
        </mxCell>
        <mxCell id="cbWRRwvguoUadpIohgbS-56" value="保存用户信息" style="html=1;verticalAlign=bottom;endArrow=block;rounded=1;entryX=0.1;entryY=0.65;entryDx=0;entryDy=0;entryPerimeter=0;" parent="7baba1c4bc27f4b0-3" target="cbWRRwvguoUadpIohgbS-55" edge="1">
          <mxGeometry width="80" relative="1" as="geometry">
            <mxPoint x="60" y="460" as="sourcePoint" />
            <mxPoint x="140" y="460" as="targetPoint" />
          </mxGeometry>
        </mxCell>
        <mxCell id="cbWRRwvguoUadpIohgbS-92" value="" style="html=1;points=[];perimeter=orthogonalPerimeter;fontColor=#33001A;" parent="7baba1c4bc27f4b0-3" vertex="1">
          <mxGeometry x="45" y="1730" width="10" height="160" as="geometry" />
        </mxCell>
        <mxCell id="cbWRRwvguoUadpIohgbS-94" value="" style="html=1;points=[];perimeter=orthogonalPerimeter;fontColor=#33001A;" parent="7baba1c4bc27f4b0-3" vertex="1">
          <mxGeometry x="55" y="1780" width="10" height="40" as="geometry" />
        </mxCell>
        <mxCell id="cbWRRwvguoUadpIohgbS-95" value="&lt;span style=&quot;text-align: center; color: rgb(50, 50, 50); font-family: 微软雅黑; font-size: 13px; background-color: rgba(255, 255, 255, 0.01);&quot;&gt;1、完成token3的校验&lt;br&gt;2、&lt;/span&gt;&lt;span style=&quot;color: rgb(50, 50, 50); font-family: 微软雅黑; font-size: 13px; text-align: center; background-color: rgba(255, 255, 255, 0.01);&quot;&gt;使用token3完成登录&lt;/span&gt;&lt;span style=&quot;text-align: center; color: rgb(50, 50, 50); font-family: 微软雅黑; font-size: 13px; background-color: rgba(255, 255, 255, 0.01);&quot;&gt;&lt;br&gt;subject.login()&lt;/span&gt;&lt;br style=&quot;text-align: center; color: rgb(50, 50, 50); font-family: 微软雅黑; font-size: 13px;&quot;&gt;&lt;span style=&quot;text-align: center; color: rgb(50, 50, 50); font-family: 微软雅黑; font-size: 13px; background-color: rgba(255, 255, 255, 0.01);&quot;&gt;subject&amp;lt;--&amp;gt;username&lt;/span&gt;" style="edgeStyle=orthogonalEdgeStyle;html=1;align=left;spacingLeft=2;endArrow=block;rounded=0;entryX=1;entryY=0;fontColor=#33001A;" parent="7baba1c4bc27f4b0-3" target="cbWRRwvguoUadpIohgbS-94" edge="1">
          <mxGeometry relative="1" as="geometry">
            <mxPoint x="55" y="1760" as="sourcePoint" />
            <Array as="points">
              <mxPoint x="85" y="1760" />
            </Array>
          </mxGeometry>
        </mxCell>
        <mxCell id="cbWRRwvguoUadpIohgbS-97" value="保存用户信息" style="html=1;verticalAlign=bottom;endArrow=block;rounded=1;fontColor=#33001A;" parent="7baba1c4bc27f4b0-3" target="7baba1c4bc27f4b0-4" edge="1">
          <mxGeometry width="80" relative="1" as="geometry">
            <mxPoint x="50" y="1830" as="sourcePoint" />
            <mxPoint x="130" y="1830" as="targetPoint" />
          </mxGeometry>
        </mxCell>
        <mxCell id="7baba1c4bc27f4b0-4" value="redis" style="shape=umlLifeline;perimeter=lifelinePerimeter;whiteSpace=wrap;html=1;container=1;collapsible=0;recursiveResize=0;outlineConnect=0;rounded=1;shadow=0;comic=0;labelBackgroundColor=none;strokeWidth=1;fontFamily=Verdana;fontSize=12;align=center;" parent="1" vertex="1">
          <mxGeometry x="960" y="80" width="100" height="2220" as="geometry" />
        </mxCell>
        <mxCell id="cbWRRwvguoUadpIohgbS-5" value="" style="html=1;points=[];perimeter=orthogonalPerimeter;" parent="7baba1c4bc27f4b0-4" vertex="1">
          <mxGeometry x="45" y="190" width="10" height="120" as="geometry" />
        </mxCell>
        <mxCell id="cbWRRwvguoUadpIohgbS-24" value="" style="html=1;points=[];perimeter=orthogonalPerimeter;" parent="7baba1c4bc27f4b0-4" vertex="1">
          <mxGeometry x="45" y="760" width="10" height="60" as="geometry" />
        </mxCell>
        <mxCell id="cbWRRwvguoUadpIohgbS-27" value="" style="html=1;points=[];perimeter=orthogonalPerimeter;" parent="7baba1c4bc27f4b0-4" vertex="1">
          <mxGeometry x="55" y="800" width="10" height="20" as="geometry" />
        </mxCell>
        <mxCell id="cbWRRwvguoUadpIohgbS-28" value="&lt;div&gt;redis.set(PERSIONSER_LOGIN_USER:TEST:username,LoginUserInfoVo)&lt;/div&gt;&lt;div&gt;&lt;font color=&quot;#ff3333&quot;&gt;redis.set(AUTH_TOKEN:token2,username)&lt;/font&gt;&lt;/div&gt;" style="edgeStyle=orthogonalEdgeStyle;html=1;align=left;spacingLeft=2;endArrow=block;rounded=0;entryX=1;entryY=0;" parent="7baba1c4bc27f4b0-4" target="cbWRRwvguoUadpIohgbS-27" edge="1">
          <mxGeometry x="0.2727" y="5" relative="1" as="geometry">
            <mxPoint x="55" y="820" as="sourcePoint" />
            <Array as="points">
              <mxPoint x="55" y="780" />
              <mxPoint x="85" y="780" />
              <mxPoint x="85" y="800" />
            </Array>
            <mxPoint as="offset" />
          </mxGeometry>
        </mxCell>
        <mxCell id="cbWRRwvguoUadpIohgbS-39" value="" style="html=1;points=[];perimeter=orthogonalPerimeter;" parent="7baba1c4bc27f4b0-4" vertex="1">
          <mxGeometry x="55" y="230" width="10" height="20" as="geometry" />
        </mxCell>
        <mxCell id="cbWRRwvguoUadpIohgbS-40" value="&lt;div&gt;redis.set(AUTH_TOKEN:username,token1)&lt;/div&gt;&lt;div&gt;redis.set(AUTH_TOKEN:token1,username)&lt;/div&gt;" style="edgeStyle=orthogonalEdgeStyle;html=1;align=left;spacingLeft=2;endArrow=block;rounded=0;entryX=1;entryY=0;" parent="7baba1c4bc27f4b0-4" target="cbWRRwvguoUadpIohgbS-39" edge="1">
          <mxGeometry relative="1" as="geometry">
            <mxPoint x="55" y="210" as="sourcePoint" />
            <Array as="points">
              <mxPoint x="85" y="210" />
            </Array>
          </mxGeometry>
        </mxCell>
        <mxCell id="cbWRRwvguoUadpIohgbS-55" value="" style="html=1;points=[];perimeter=orthogonalPerimeter;" parent="7baba1c4bc27f4b0-4" vertex="1">
          <mxGeometry x="45" y="410" width="10" height="80" as="geometry" />
        </mxCell>
        <mxCell id="cbWRRwvguoUadpIohgbS-57" value="" style="html=1;points=[];perimeter=orthogonalPerimeter;" parent="7baba1c4bc27f4b0-4" vertex="1">
          <mxGeometry x="55" y="450" width="10" height="40" as="geometry" />
        </mxCell>
        <mxCell id="cbWRRwvguoUadpIohgbS-58" value="redis.set(PERSIONSER_LOGIN_USER:TEST:username,LoginUserInfoVo)&lt;br&gt;&lt;span style=&quot;color: rgb(255, 51, 51);&quot;&gt;redis.set(AUTH_TOKEN:token1,username)&lt;/span&gt;" style="edgeStyle=orthogonalEdgeStyle;html=1;align=left;spacingLeft=2;endArrow=block;rounded=0;entryX=1;entryY=0;" parent="7baba1c4bc27f4b0-4" target="cbWRRwvguoUadpIohgbS-57" edge="1">
          <mxGeometry relative="1" as="geometry">
            <mxPoint x="55" y="430" as="sourcePoint" />
            <Array as="points">
              <mxPoint x="85" y="430" />
            </Array>
          </mxGeometry>
        </mxCell>
        <mxCell id="cbWRRwvguoUadpIohgbS-69" value="" style="html=1;points=[];perimeter=orthogonalPerimeter;fontColor=#33001A;" parent="7baba1c4bc27f4b0-4" vertex="1">
          <mxGeometry x="45" y="990" width="10" height="80" as="geometry" />
        </mxCell>
        <mxCell id="cbWRRwvguoUadpIohgbS-83" value="" style="html=1;points=[];perimeter=orthogonalPerimeter;fontColor=#33001A;" parent="7baba1c4bc27f4b0-4" vertex="1">
          <mxGeometry x="45" y="1500" width="10" height="150" as="geometry" />
        </mxCell>
        <mxCell id="cbWRRwvguoUadpIohgbS-85" value="" style="html=1;points=[];perimeter=orthogonalPerimeter;fontColor=#33001A;" parent="7baba1c4bc27f4b0-4" vertex="1">
          <mxGeometry x="55" y="1540" width="10" height="40" as="geometry" />
        </mxCell>
        <mxCell id="cbWRRwvguoUadpIohgbS-86" value="&lt;div style=&quot;&quot;&gt;&lt;font color=&quot;#ff3333&quot;&gt;redis.set(AUTH_TOKEN:username,token3)&lt;/font&gt;&lt;/div&gt;&lt;div style=&quot;color: rgb(0, 0, 0);&quot;&gt;redis.set(AUTH_TOKEN:token3,username)&lt;/div&gt;" style="edgeStyle=orthogonalEdgeStyle;html=1;align=left;spacingLeft=2;endArrow=block;rounded=0;entryX=1;entryY=0;fontColor=#33001A;" parent="7baba1c4bc27f4b0-4" target="cbWRRwvguoUadpIohgbS-85" edge="1">
          <mxGeometry relative="1" as="geometry">
            <mxPoint x="55" y="1520" as="sourcePoint" />
            <Array as="points">
              <mxPoint x="85" y="1520" />
            </Array>
          </mxGeometry>
        </mxCell>
        <mxCell id="cbWRRwvguoUadpIohgbS-96" value="" style="html=1;points=[];perimeter=orthogonalPerimeter;fontColor=#33001A;" parent="7baba1c4bc27f4b0-4" vertex="1">
          <mxGeometry x="45" y="1800" width="10" height="90" as="geometry" />
        </mxCell>
        <mxCell id="cbWRRwvguoUadpIohgbS-110" value="" style="html=1;points=[];perimeter=orthogonalPerimeter;fontColor=#33001A;" parent="7baba1c4bc27f4b0-4" vertex="1">
          <mxGeometry x="45" y="2020" width="10" height="80" as="geometry" />
        </mxCell>
        <mxCell id="cbWRRwvguoUadpIohgbS-118" value="" style="html=1;points=[];perimeter=orthogonalPerimeter;fontColor=#33001A;" parent="7baba1c4bc27f4b0-4" vertex="1">
          <mxGeometry x="55" y="1840" width="10" height="40" as="geometry" />
        </mxCell>
        <mxCell id="cbWRRwvguoUadpIohgbS-119" value="&lt;span style=&quot;color: rgb(0, 0, 0);&quot;&gt;redis.set(PERSIONSER_LOGIN_USER:TEST:username,LoginUserInfoVo)&lt;/span&gt;&lt;br style=&quot;color: rgb(0, 0, 0);&quot;&gt;&lt;span style=&quot;color: rgb(255, 51, 51);&quot;&gt;redis.set(AUTH_TOKEN:token3,username)&lt;/span&gt;" style="edgeStyle=orthogonalEdgeStyle;html=1;align=left;spacingLeft=2;endArrow=block;rounded=0;entryX=1;entryY=0;fontColor=#33001A;" parent="7baba1c4bc27f4b0-4" target="cbWRRwvguoUadpIohgbS-118" edge="1">
          <mxGeometry y="5" relative="1" as="geometry">
            <mxPoint x="55" y="1830" as="sourcePoint" />
            <Array as="points">
              <mxPoint x="85" y="1830" />
            </Array>
            <mxPoint as="offset" />
          </mxGeometry>
        </mxCell>
        <mxCell id="DSOGSqVOh71Na_ENCpbp-1" value="" style="html=1;points=[];perimeter=orthogonalPerimeter;" vertex="1" parent="7baba1c4bc27f4b0-4">
          <mxGeometry x="55" y="270" width="10" height="30" as="geometry" />
        </mxCell>
        <mxCell id="DSOGSqVOh71Na_ENCpbp-2" value="redis.set(PERSIONSER_LOGIN_USER:TEST:username,LoginUserInfoVo)" style="edgeStyle=orthogonalEdgeStyle;html=1;align=left;spacingLeft=2;endArrow=block;rounded=0;entryX=1;entryY=0;" edge="1" target="DSOGSqVOh71Na_ENCpbp-1" parent="7baba1c4bc27f4b0-4">
          <mxGeometry x="0.125" relative="1" as="geometry">
            <mxPoint x="55" y="250" as="sourcePoint" />
            <Array as="points">
              <mxPoint x="55" y="260" />
              <mxPoint x="90" y="260" />
              <mxPoint x="90" y="270" />
            </Array>
            <mxPoint as="offset" />
          </mxGeometry>
        </mxCell>
        <mxCell id="DSOGSqVOh71Na_ENCpbp-3" value="" style="html=1;points=[];perimeter=orthogonalPerimeter;" vertex="1" parent="7baba1c4bc27f4b0-4">
          <mxGeometry x="55" y="1610" width="10" height="20" as="geometry" />
        </mxCell>
        <mxCell id="DSOGSqVOh71Na_ENCpbp-4" value="redis.set(PERSIONSER_LOGIN_USER:TEST:username,LoginUserInfoVo)" style="edgeStyle=orthogonalEdgeStyle;html=1;align=left;spacingLeft=2;endArrow=block;rounded=0;entryX=1;entryY=0;" edge="1" target="DSOGSqVOh71Na_ENCpbp-3" parent="7baba1c4bc27f4b0-4">
          <mxGeometry relative="1" as="geometry">
            <mxPoint x="55" y="1600" as="sourcePoint" />
            <Array as="points">
              <mxPoint x="55" y="1590" />
              <mxPoint x="85" y="1590" />
              <mxPoint x="85" y="1610" />
            </Array>
          </mxGeometry>
        </mxCell>
        <mxCell id="7baba1c4bc27f4b0-8" value="企微" style="shape=umlLifeline;perimeter=lifelinePerimeter;whiteSpace=wrap;html=1;container=1;collapsible=0;recursiveResize=0;outlineConnect=0;rounded=1;shadow=0;comic=0;labelBackgroundColor=none;strokeWidth=1;fontFamily=Verdana;fontSize=12;align=center;" parent="1" vertex="1">
          <mxGeometry x="100" y="80" width="100" height="2220" as="geometry" />
        </mxCell>
        <mxCell id="7baba1c4bc27f4b0-9" value="" style="html=1;points=[];perimeter=orthogonalPerimeter;rounded=0;shadow=0;comic=0;labelBackgroundColor=none;strokeWidth=1;fontFamily=Verdana;fontSize=12;align=center;" parent="7baba1c4bc27f4b0-8" vertex="1">
          <mxGeometry x="45" y="100" width="10" height="220" as="geometry" />
        </mxCell>
        <mxCell id="cbWRRwvguoUadpIohgbS-43" value="" style="html=1;points=[];perimeter=orthogonalPerimeter;" parent="7baba1c4bc27f4b0-8" vertex="1">
          <mxGeometry x="45" y="345" width="10" height="185" as="geometry" />
        </mxCell>
        <mxCell id="cbWRRwvguoUadpIohgbS-65" value="" style="html=1;points=[];perimeter=orthogonalPerimeter;fontColor=#33001A;" parent="7baba1c4bc27f4b0-8" vertex="1">
          <mxGeometry x="45" y="950" width="10" height="280" as="geometry" />
        </mxCell>
        <mxCell id="cbWRRwvguoUadpIohgbS-67" value="拦截校验" style="endArrow=open;endSize=12;dashed=1;html=1;rounded=1;fontColor=#33001A;" parent="7baba1c4bc27f4b0-8" target="7baba1c4bc27f4b0-2" edge="1">
          <mxGeometry width="160" relative="1" as="geometry">
            <mxPoint x="60" y="1020" as="sourcePoint" />
            <mxPoint x="220" y="1020" as="targetPoint" />
          </mxGeometry>
        </mxCell>
        <mxCell id="cbWRRwvguoUadpIohgbS-78" value="登录" style="html=1;verticalAlign=bottom;endArrow=block;rounded=1;fontColor=#33001A;" parent="7baba1c4bc27f4b0-8" target="cbWRRwvguoUadpIohgbS-14" edge="1">
          <mxGeometry width="80" relative="1" as="geometry">
            <mxPoint x="20" y="1400" as="sourcePoint" />
            <mxPoint x="100" y="1400" as="targetPoint" />
          </mxGeometry>
        </mxCell>
        <mxCell id="cbWRRwvguoUadpIohgbS-103" value="" style="html=1;points=[];perimeter=orthogonalPerimeter;fontColor=#33001A;" parent="7baba1c4bc27f4b0-8" vertex="1">
          <mxGeometry x="45" y="1980" width="10" height="240" as="geometry" />
        </mxCell>
        <mxCell id="cbWRRwvguoUadpIohgbS-104" value="跳转，携带token3" style="html=1;verticalAlign=bottom;endArrow=none;rounded=1;fontColor=#33001A;startArrow=classic;startFill=1;endFill=0;entryX=0.1;entryY=0.613;entryDx=0;entryDy=0;entryPerimeter=0;" parent="7baba1c4bc27f4b0-8" target="cbWRRwvguoUadpIohgbS-102" edge="1">
          <mxGeometry width="80" relative="1" as="geometry">
            <mxPoint x="60" y="1990" as="sourcePoint" />
            <mxPoint x="140" y="1990" as="targetPoint" />
          </mxGeometry>
        </mxCell>
        <mxCell id="cbWRRwvguoUadpIohgbS-107" value="Use" style="endArrow=open;endSize=12;dashed=1;html=1;rounded=1;fontColor=#33001A;" parent="7baba1c4bc27f4b0-8" target="7baba1c4bc27f4b0-2" edge="1">
          <mxGeometry width="160" relative="1" as="geometry">
            <mxPoint x="50" y="2050" as="sourcePoint" />
            <mxPoint x="210" y="2050" as="targetPoint" />
          </mxGeometry>
        </mxCell>
        <mxCell id="cbWRRwvguoUadpIohgbS-109" value="拦截校验" style="edgeLabel;html=1;align=center;verticalAlign=middle;resizable=0;points=[];fontColor=#33001A;" parent="cbWRRwvguoUadpIohgbS-107" vertex="1" connectable="0">
          <mxGeometry x="0.0731" y="3" relative="1" as="geometry">
            <mxPoint x="-18" y="3" as="offset" />
          </mxGeometry>
        </mxCell>
        <mxCell id="7baba1c4bc27f4b0-11" value="登录" style="html=1;verticalAlign=bottom;endArrow=block;entryX=0;entryY=0;labelBackgroundColor=none;fontFamily=Verdana;fontSize=12;edgeStyle=elbowEdgeStyle;elbow=vertical;" parent="1" source="7baba1c4bc27f4b0-9" target="7baba1c4bc27f4b0-10" edge="1">
          <mxGeometry relative="1" as="geometry">
            <mxPoint x="220" y="190" as="sourcePoint" />
          </mxGeometry>
        </mxCell>
        <mxCell id="cbWRRwvguoUadpIohgbS-6" value="保存用户信息" style="html=1;verticalAlign=bottom;startArrow=none;endArrow=block;startSize=8;rounded=1;startFill=0;entryX=0.2;entryY=0.113;entryDx=0;entryDy=0;entryPerimeter=0;" parent="1" target="cbWRRwvguoUadpIohgbS-5" edge="1">
          <mxGeometry y="15" relative="1" as="geometry">
            <mxPoint x="660" y="279" as="sourcePoint" />
            <Array as="points" />
            <mxPoint as="offset" />
          </mxGeometry>
        </mxCell>
        <mxCell id="cbWRRwvguoUadpIohgbS-13" value="" style="edgeStyle=orthogonalEdgeStyle;rounded=0;orthogonalLoop=1;jettySize=auto;html=1;" parent="1" source="cbWRRwvguoUadpIohgbS-12" target="7baba1c4bc27f4b0-9" edge="1">
          <mxGeometry relative="1" as="geometry">
            <Array as="points">
              <mxPoint x="100" y="190" />
              <mxPoint x="100" y="190" />
            </Array>
          </mxGeometry>
        </mxCell>
        <mxCell id="cbWRRwvguoUadpIohgbS-12" value="Actor" style="shape=umlActor;verticalLabelPosition=bottom;verticalAlign=top;html=1;" parent="1" vertex="1">
          <mxGeometry x="20" y="160" width="30" height="60" as="geometry" />
        </mxCell>
        <mxCell id="cbWRRwvguoUadpIohgbS-14" value="云帆" style="shape=umlLifeline;perimeter=lifelinePerimeter;whiteSpace=wrap;html=1;container=1;collapsible=0;recursiveResize=0;outlineConnect=0;" parent="1" vertex="1">
          <mxGeometry x="440" y="80" width="100" height="2230" as="geometry" />
        </mxCell>
        <mxCell id="cbWRRwvguoUadpIohgbS-76" value="" style="html=1;points=[];perimeter=orthogonalPerimeter;fontColor=#33001A;" parent="cbWRRwvguoUadpIohgbS-14" vertex="1">
          <mxGeometry x="45" y="1370" width="10" height="310" as="geometry" />
        </mxCell>
        <mxCell id="cbWRRwvguoUadpIohgbS-80" value="登录" style="html=1;verticalAlign=bottom;endArrow=block;rounded=1;fontColor=#33001A;" parent="cbWRRwvguoUadpIohgbS-14" target="cbWRRwvguoUadpIohgbS-79" edge="1">
          <mxGeometry width="80" relative="1" as="geometry">
            <mxPoint x="50" y="1420" as="sourcePoint" />
            <mxPoint x="130" y="1420" as="targetPoint" />
          </mxGeometry>
        </mxCell>
        <mxCell id="cbWRRwvguoUadpIohgbS-89" value="" style="html=1;points=[];perimeter=orthogonalPerimeter;fontColor=#33001A;" parent="cbWRRwvguoUadpIohgbS-14" vertex="1">
          <mxGeometry x="45" y="1690" width="10" height="60" as="geometry" />
        </mxCell>
        <mxCell id="cbWRRwvguoUadpIohgbS-102" value="" style="html=1;points=[];perimeter=orthogonalPerimeter;fontColor=#33001A;" parent="cbWRRwvguoUadpIohgbS-14" vertex="1">
          <mxGeometry x="45" y="1940" width="10" height="80" as="geometry" />
        </mxCell>
        <mxCell id="cbWRRwvguoUadpIohgbS-15" value="Actor" style="shape=umlActor;verticalLabelPosition=bottom;verticalAlign=top;html=1;" parent="1" vertex="1">
          <mxGeometry x="20" y="710" width="30" height="60" as="geometry" />
        </mxCell>
        <mxCell id="cbWRRwvguoUadpIohgbS-18" value="登录" style="html=1;verticalAlign=bottom;startArrow=oval;endArrow=block;startSize=8;rounded=1;exitX=1;exitY=0.3333333333333333;exitDx=0;exitDy=0;exitPerimeter=0;entryX=-0.1;entryY=0.013;entryDx=0;entryDy=0;entryPerimeter=0;" parent="1" source="cbWRRwvguoUadpIohgbS-15" target="cbWRRwvguoUadpIohgbS-31" edge="1">
          <mxGeometry relative="1" as="geometry">
            <mxPoint x="235" y="730" as="sourcePoint" />
          </mxGeometry>
        </mxCell>
        <mxCell id="cbWRRwvguoUadpIohgbS-21" value="拦截" style="html=1;verticalAlign=bottom;startArrow=none;endArrow=block;startSize=8;rounded=1;startFill=0;entryX=0;entryY=0.067;entryDx=0;entryDy=0;entryPerimeter=0;" parent="1" source="cbWRRwvguoUadpIohgbS-30" target="cbWRRwvguoUadpIohgbS-41" edge="1">
          <mxGeometry relative="1" as="geometry">
            <mxPoint x="660" y="750" as="sourcePoint" />
          </mxGeometry>
        </mxCell>
        <mxCell id="cbWRRwvguoUadpIohgbS-10" value="return" style="html=1;verticalAlign=bottom;endArrow=open;dashed=1;endSize=8;rounded=0;exitX=-0.5;exitY=0.963;exitDx=0;exitDy=0;exitPerimeter=0;" parent="1" source="cbWRRwvguoUadpIohgbS-5" target="7baba1c4bc27f4b0-2" edge="1">
          <mxGeometry relative="1" as="geometry">
            <mxPoint x="715" y="330" as="sourcePoint" />
            <mxPoint x="635" y="330" as="targetPoint" />
          </mxGeometry>
        </mxCell>
        <mxCell id="cbWRRwvguoUadpIohgbS-30" value="有数" style="shape=umlLifeline;perimeter=lifelinePerimeter;whiteSpace=wrap;html=1;container=1;collapsible=0;recursiveResize=0;outlineConnect=0;" parent="1" vertex="1">
          <mxGeometry x="270" y="80" width="100" height="2210" as="geometry" />
        </mxCell>
        <mxCell id="cbWRRwvguoUadpIohgbS-31" value="" style="html=1;points=[];perimeter=orthogonalPerimeter;" parent="cbWRRwvguoUadpIohgbS-30" vertex="1">
          <mxGeometry x="45" y="650" width="10" height="170" as="geometry" />
        </mxCell>
        <mxCell id="cbWRRwvguoUadpIohgbS-45" value="" style="html=1;points=[];perimeter=orthogonalPerimeter;" parent="cbWRRwvguoUadpIohgbS-30" vertex="1">
          <mxGeometry x="45" y="360" width="10" height="160" as="geometry" />
        </mxCell>
        <mxCell id="cbWRRwvguoUadpIohgbS-48" value="拦截" style="html=1;verticalAlign=bottom;endArrow=block;rounded=1;" parent="cbWRRwvguoUadpIohgbS-30" target="7baba1c4bc27f4b0-3" edge="1">
          <mxGeometry width="80" relative="1" as="geometry">
            <mxPoint x="50" y="380" as="sourcePoint" />
            <mxPoint x="130" y="380" as="targetPoint" />
          </mxGeometry>
        </mxCell>
        <mxCell id="cbWRRwvguoUadpIohgbS-64" value="" style="html=1;points=[];perimeter=orthogonalPerimeter;fontColor=#33001A;" parent="cbWRRwvguoUadpIohgbS-30" vertex="1">
          <mxGeometry x="45" y="920" width="10" height="60" as="geometry" />
        </mxCell>
        <mxCell id="cbWRRwvguoUadpIohgbS-90" value="" style="html=1;points=[];perimeter=orthogonalPerimeter;fontColor=#33001A;" parent="cbWRRwvguoUadpIohgbS-30" vertex="1">
          <mxGeometry x="45" y="1690" width="10" height="210" as="geometry" />
        </mxCell>
        <mxCell id="cbWRRwvguoUadpIohgbS-93" value="拦截" style="html=1;verticalAlign=bottom;endArrow=block;rounded=1;fontColor=#33001A;" parent="cbWRRwvguoUadpIohgbS-30" target="7baba1c4bc27f4b0-3" edge="1">
          <mxGeometry width="80" relative="1" as="geometry">
            <mxPoint x="60" y="1760" as="sourcePoint" />
            <mxPoint x="140" y="1760" as="targetPoint" />
          </mxGeometry>
        </mxCell>
        <mxCell id="cbWRRwvguoUadpIohgbS-11" value="return" style="html=1;verticalAlign=bottom;endArrow=open;dashed=1;endSize=8;rounded=0;exitX=0.1;exitY=0.958;exitDx=0;exitDy=0;exitPerimeter=0;" parent="1" source="7baba1c4bc27f4b0-10" target="7baba1c4bc27f4b0-8" edge="1">
          <mxGeometry relative="1" as="geometry">
            <mxPoint x="235" y="399.5" as="sourcePoint" />
            <mxPoint x="155" y="399.5" as="targetPoint" />
            <Array as="points" />
          </mxGeometry>
        </mxCell>
        <mxCell id="cbWRRwvguoUadpIohgbS-26" value="保存用户信息" style="html=1;verticalAlign=bottom;endArrow=block;rounded=1;" parent="1" edge="1">
          <mxGeometry x="-0.0243" y="-30" width="80" relative="1" as="geometry">
            <mxPoint x="830" y="850" as="sourcePoint" />
            <mxPoint x="1010" y="850" as="targetPoint" />
            <mxPoint x="1" as="offset" />
          </mxGeometry>
        </mxCell>
        <mxCell id="cbWRRwvguoUadpIohgbS-59" value="return" style="html=1;verticalAlign=bottom;endArrow=open;dashed=1;endSize=8;rounded=1;entryX=1;entryY=0.957;entryDx=0;entryDy=0;entryPerimeter=0;" parent="1" source="7baba1c4bc27f4b0-2" target="cbWRRwvguoUadpIohgbS-45" edge="1">
          <mxGeometry relative="1" as="geometry">
            <mxPoint x="640" y="540" as="sourcePoint" />
            <mxPoint x="560" y="540" as="targetPoint" />
          </mxGeometry>
        </mxCell>
        <mxCell id="cbWRRwvguoUadpIohgbS-60" value="return" style="html=1;verticalAlign=bottom;endArrow=open;dashed=1;endSize=8;rounded=1;exitX=0;exitY=0.979;exitDx=0;exitDy=0;exitPerimeter=0;" parent="1" source="cbWRRwvguoUadpIohgbS-45" target="7baba1c4bc27f4b0-8" edge="1">
          <mxGeometry relative="1" as="geometry">
            <mxPoint x="310" y="560" as="sourcePoint" />
            <mxPoint x="230" y="560" as="targetPoint" />
          </mxGeometry>
        </mxCell>
        <mxCell id="cbWRRwvguoUadpIohgbS-61" value="&lt;h3&gt;&lt;b&gt;&lt;font color=&quot;#ff0000&quot;&gt;以下登录和操作均为统一账户&lt;/font&gt;&lt;/b&gt;&lt;/h3&gt;" style="text;html=1;strokeColor=none;fillColor=none;align=center;verticalAlign=middle;whiteSpace=wrap;rounded=0;" parent="1" vertex="1">
          <mxGeometry x="5" y="90" width="85" height="40" as="geometry" />
        </mxCell>
        <mxCell id="cbWRRwvguoUadpIohgbS-62" value="&lt;font color=&quot;#33001a&quot;&gt;return&lt;/font&gt;" style="html=1;verticalAlign=bottom;endArrow=open;dashed=1;endSize=8;rounded=1;fontColor=#FF0000;" parent="1" target="7baba1c4bc27f4b0-2" edge="1">
          <mxGeometry relative="1" as="geometry">
            <mxPoint x="810" y="870" as="sourcePoint" />
            <mxPoint x="660" y="850" as="targetPoint" />
          </mxGeometry>
        </mxCell>
        <mxCell id="cbWRRwvguoUadpIohgbS-63" value="return" style="html=1;verticalAlign=bottom;endArrow=open;dashed=1;endSize=8;rounded=1;fontColor=#33001A;" parent="1" target="cbWRRwvguoUadpIohgbS-30" edge="1">
          <mxGeometry relative="1" as="geometry">
            <mxPoint x="640" y="880" as="sourcePoint" />
            <mxPoint x="560" y="860" as="targetPoint" />
          </mxGeometry>
        </mxCell>
        <mxCell id="cbWRRwvguoUadpIohgbS-53" value="return" style="html=1;verticalAlign=bottom;endArrow=open;dashed=1;endSize=8;rounded=1;" parent="1" source="7baba1c4bc27f4b0-3" edge="1">
          <mxGeometry relative="1" as="geometry">
            <mxPoint x="735" y="520" as="sourcePoint" />
            <mxPoint x="660" y="570" as="targetPoint" />
          </mxGeometry>
        </mxCell>
        <mxCell id="cbWRRwvguoUadpIohgbS-66" value="跳转，携带token2" style="html=1;verticalAlign=bottom;endArrow=none;rounded=1;fontColor=#33001A;startArrow=classic;startFill=1;endFill=0;" parent="1" source="7baba1c4bc27f4b0-8" edge="1">
          <mxGeometry width="80" relative="1" as="geometry">
            <mxPoint x="230" y="1040" as="sourcePoint" />
            <mxPoint x="310" y="1040" as="targetPoint" />
          </mxGeometry>
        </mxCell>
        <mxCell id="cbWRRwvguoUadpIohgbS-46" value="跳转，携带token1" style="html=1;verticalAlign=bottom;endArrow=block;rounded=1;entryX=-0.2;entryY=0.077;entryDx=0;entryDy=0;entryPerimeter=0;" parent="1" source="7baba1c4bc27f4b0-8" target="cbWRRwvguoUadpIohgbS-45" edge="1">
          <mxGeometry width="80" relative="1" as="geometry">
            <mxPoint x="150" y="430" as="sourcePoint" />
            <mxPoint x="230" y="430" as="targetPoint" />
          </mxGeometry>
        </mxCell>
        <mxCell id="cbWRRwvguoUadpIohgbS-72" value="return" style="html=1;verticalAlign=bottom;endArrow=open;dashed=1;endSize=8;rounded=1;fontColor=#33001A;" parent="1" target="7baba1c4bc27f4b0-2" edge="1">
          <mxGeometry relative="1" as="geometry">
            <mxPoint x="1000" y="1140" as="sourcePoint" />
            <mxPoint x="920" y="1140" as="targetPoint" />
          </mxGeometry>
        </mxCell>
        <mxCell id="cbWRRwvguoUadpIohgbS-74" value="达到续期条件token2续期" style="edgeStyle=orthogonalEdgeStyle;html=1;align=left;spacingLeft=2;endArrow=block;rounded=0;entryX=1;entryY=0;fontColor=#33001A;" parent="1" target="cbWRRwvguoUadpIohgbS-73" edge="1">
          <mxGeometry relative="1" as="geometry">
            <mxPoint x="655" y="1140" as="sourcePoint" />
            <Array as="points">
              <mxPoint x="655" y="1160" />
              <mxPoint x="685" y="1160" />
              <mxPoint x="685" y="1200" />
            </Array>
          </mxGeometry>
        </mxCell>
        <mxCell id="cbWRRwvguoUadpIohgbS-75" value="return" style="html=1;verticalAlign=bottom;endArrow=open;dashed=1;endSize=8;rounded=1;fontColor=#33001A;" parent="1" target="7baba1c4bc27f4b0-8" edge="1">
          <mxGeometry relative="1" as="geometry">
            <mxPoint x="640" y="1240" as="sourcePoint" />
            <mxPoint x="560" y="1240" as="targetPoint" />
          </mxGeometry>
        </mxCell>
        <mxCell id="cbWRRwvguoUadpIohgbS-77" value="Actor" style="shape=umlActor;verticalLabelPosition=bottom;verticalAlign=top;html=1;fontColor=#33001A;" parent="1" vertex="1">
          <mxGeometry x="70" y="1450" width="30" height="60" as="geometry" />
        </mxCell>
        <mxCell id="cbWRRwvguoUadpIohgbS-87" value="return" style="html=1;verticalAlign=bottom;endArrow=open;dashed=1;endSize=8;rounded=1;fontColor=#33001A;entryX=1.5;entryY=0.929;entryDx=0;entryDy=0;entryPerimeter=0;" parent="1" target="cbWRRwvguoUadpIohgbS-79" edge="1" source="cbWRRwvguoUadpIohgbS-83">
          <mxGeometry x="-0.03" y="-10" relative="1" as="geometry">
            <mxPoint x="1000" y="1650" as="sourcePoint" />
            <mxPoint x="920" y="1650" as="targetPoint" />
            <mxPoint as="offset" />
          </mxGeometry>
        </mxCell>
        <mxCell id="cbWRRwvguoUadpIohgbS-88" value="return" style="html=1;verticalAlign=bottom;endArrow=open;dashed=1;endSize=8;rounded=1;fontColor=#33001A;" parent="1" edge="1" source="7baba1c4bc27f4b0-2">
          <mxGeometry relative="1" as="geometry">
            <mxPoint x="640" y="1660" as="sourcePoint" />
            <mxPoint x="500" y="1740" as="targetPoint" />
          </mxGeometry>
        </mxCell>
        <mxCell id="cbWRRwvguoUadpIohgbS-91" value="跳转，携带token3" style="html=1;verticalAlign=bottom;endArrow=none;rounded=1;fontColor=#33001A;startArrow=classic;startFill=1;endFill=0;" parent="1" source="cbWRRwvguoUadpIohgbS-30" edge="1">
          <mxGeometry width="80" relative="1" as="geometry">
            <mxPoint x="400" y="1780" as="sourcePoint" />
            <mxPoint x="480" y="1780" as="targetPoint" />
          </mxGeometry>
        </mxCell>
        <mxCell id="cbWRRwvguoUadpIohgbS-100" value="return" style="html=1;verticalAlign=bottom;endArrow=open;dashed=1;endSize=8;rounded=1;fontColor=#33001A;" parent="1" target="7baba1c4bc27f4b0-3" edge="1">
          <mxGeometry relative="1" as="geometry">
            <mxPoint x="1000" y="1960" as="sourcePoint" />
            <mxPoint x="920" y="1960" as="targetPoint" />
          </mxGeometry>
        </mxCell>
        <mxCell id="cbWRRwvguoUadpIohgbS-101" value="return" style="html=1;verticalAlign=bottom;endArrow=open;dashed=1;endSize=8;rounded=1;fontColor=#33001A;" parent="1" target="cbWRRwvguoUadpIohgbS-30" edge="1">
          <mxGeometry relative="1" as="geometry">
            <mxPoint x="810" y="1970" as="sourcePoint" />
            <mxPoint x="730" y="1970" as="targetPoint" />
          </mxGeometry>
        </mxCell>
        <mxCell id="cbWRRwvguoUadpIohgbS-114" value="return" style="html=1;verticalAlign=bottom;endArrow=open;dashed=1;endSize=8;rounded=1;fontColor=#33001A;" parent="1" target="7baba1c4bc27f4b0-2" edge="1">
          <mxGeometry relative="1" as="geometry">
            <mxPoint x="1000" y="2180" as="sourcePoint" />
            <mxPoint x="920" y="2180" as="targetPoint" />
          </mxGeometry>
        </mxCell>
        <mxCell id="cbWRRwvguoUadpIohgbS-117" value="return" style="html=1;verticalAlign=bottom;endArrow=open;dashed=1;endSize=8;rounded=1;fontColor=#33001A;" parent="1" target="7baba1c4bc27f4b0-8" edge="1">
          <mxGeometry relative="1" as="geometry">
            <mxPoint x="640" y="2270" as="sourcePoint" />
            <mxPoint x="560" y="2270" as="targetPoint" />
          </mxGeometry>
        </mxCell>
        <mxCell id="DSOGSqVOh71Na_ENCpbp-5" value="return" style="html=1;verticalAlign=bottom;endArrow=open;dashed=1;endSize=8;rounded=1;fontColor=#33001A;" edge="1" parent="1" source="7baba1c4bc27f4b0-4" target="7baba1c4bc27f4b0-2">
          <mxGeometry x="-0.03" y="-10" relative="1" as="geometry">
            <mxPoint x="1000" y="1650" as="sourcePoint" />
            <mxPoint x="920" y="1650" as="targetPoint" />
            <mxPoint as="offset" />
          </mxGeometry>
        </mxCell>
        <mxCell id="DSOGSqVOh71Na_ENCpbp-6" value="return" style="html=1;verticalAlign=bottom;endArrow=open;dashed=1;endSize=8;rounded=1;fontColor=#33001A;" edge="1" parent="1" source="7baba1c4bc27f4b0-4" target="7baba1c4bc27f4b0-2">
          <mxGeometry x="-0.03" y="-10" relative="1" as="geometry">
            <mxPoint x="1000" y="1650" as="sourcePoint" />
            <mxPoint x="920" y="1650" as="targetPoint" />
            <mxPoint as="offset" />
          </mxGeometry>
        </mxCell>
      </root>
    </mxGraphModel>
  </diagram>
</mxfile>
